# xmcd
#
# Track frame offsets: 
#        150
#        15840
#        32877
#        49520
#        61467
#        75720
#        88475
#        105517
#        120140
#        132157
#        147127
#        162475
#        176975
#        191950
#
# Disc length: 2748 seconds
#
# Revision: 0
# Processed by: cddbd v1.5.2PL0 Copyright (c) Steve Scherf et al.
# Submitted via: ExactAudioCopy v0.95b4
#
DISCID=ba0aba0e
DTITLE=Fandango USA - Con Sabor
DYEAR=1995
DGENRE=Latin
TTITLE0=La Charanga
TTITLE1=Te Amare Un Million De Veces
TTITLE2=Me Gustas Y Te Deseo
TTITLE3=Re Buena Para Bailar
TTITLE4=Motellano
TTITLE5=Baila Compadre Juan
TTITLE6=Arbolito De Navidad
TTITLE7=No Te Puedo Perdonar
TTITLE8=Matanga La Changa
TTITLE9=Vestida De Amor
TTITLE10=La Gallinita
TTITLE11=Cuidado Con Las Mujeras
TTITLE12=Todos Quieren Charanguear
TTITLE13=Llego La Navidad
EXTD=
EXTT0=
EXTT1=
EXTT2=
EXTT3=
EXTT4=
EXTT5=
EXTT6=
EXTT7=
EXTT8=
EXTT9=
EXTT10=
EXTT11=
EXTT12=
EXTT13=
PLAYORDER=
